<mxfile host="app.diagrams.net">
  <diagram name="Purview Auto-Categorization Flow" id="0">
    <mxGraphModel dx="1200" dy="720" grid="1" gridSize="10" guides="1" tooltips="1" connect="1" arrows="1" fold="1" page="1" pageScale="1" pageWidth="850" pageHeight="1100" math="0" shadow="0">
      <root>
        <mxCell id="0"/>
        <mxCell id="1" parent="0"/>

        <mxCell id="2" value="Security Engineer" style="swimlane" vertex="1" parent="1">
          <mxGeometry x="0" y="0" width="280" height="1000" as="geometry"/>
        </mxCell>
        <mxCell id="3" value="Microsoft Purview" style="swimlane" vertex="1" parent="1">
          <mxGeometry x="280" y="0" width="280" height="1000" as="geometry"/>
        </mxCell>
        <mxCell id="4" value="Data Sources (Teams, Box, Email, Workstations)" style="swimlane" vertex="1" parent="1">
          <mxGeometry x="560" y="0" width="280" height="1000" as="geometry"/>
        </mxCell>

        <mxCell id="5" value="" style="ellipse;whiteSpace=wrap;html=1;aspect=fixed;fillColor=#000000;" vertex="1" parent="2">
          <mxGeometry x="120" y="20" width="30" height="30" as="geometry"/>
        </mxCell>

        <mxCell id="6" value="Define Sensitivity Labels & Policies in Purview" style="rounded=1;whiteSpace=wrap;html=1;" vertex="1" parent="2">
          <mxGeometry x="40" y="70" width="200" height="60" as="geometry"/>
        </mxCell>
        <mxCell id="7" value="Configure Auto-Labeling Logic (e.g., regex, classifiers)" style="rounded=1;whiteSpace=wrap;html=1;" vertex="1" parent="2">
          <mxGeometry x="40" y="150" width="200" height="60" as="geometry"/>
        </mxCell>
        <mxCell id="8" value="Deploy Policy to Microsoft Purview" style="rounded=1;whiteSpace=wrap;html=1;" vertex="1" parent="2">
          <mxGeometry x="40" y="230" width="200" height="60" as="geometry"/>
        </mxCell>
        <mxCell id="9" value="Evaluate Files and Communications (In-Place & In-Transit)" style="rounded=1;whiteSpace=wrap;html=1;" vertex="1" parent="3">
          <mxGeometry x="40" y="70" width="200" height="60" as="geometry"/>
        </mxCell>
        <mxCell id="10" value="Match Sensitivity Conditions (e.g., PII, keywords, patterns)" style="rounded=1;whiteSpace=wrap;html=1;" vertex="1" parent="3">
          <mxGeometry x="40" y="150" width="200" height="60" as="geometry"/>
        </mxCell>
        <mxCell id="11" value="Apply Sensitivity Label Automatically" style="rounded=1;whiteSpace=wrap;html=1;" vertex="1" parent="3">
          <mxGeometry x="40" y="230" width="200" height="60" as="geometry"/>
        </mxCell>
        <mxCell id="12" value="Files Shared, Created, or Moved Across Sources" style="rounded=1;whiteSpace=wrap;html=1;" vertex="1" parent="4">
          <mxGeometry x="40" y="70" width="200" height="60" as="geometry"/>
        </mxCell>
        <mxCell id="13" value="Files Tagged with Labels (Internal, Confidential, etc.)" style="rounded=1;whiteSpace=wrap;html=1;" vertex="1" parent="4">
          <mxGeometry x="40" y="150" width="200" height="60" as="geometry"/>
        </mxCell>

        <mxCell id="14" value="" style="ellipse;whiteSpace=wrap;html=1;aspect=fixed;fillColor=#000000;" vertex="1" parent="3">
          <mxGeometry x="110" y="320" width="30" height="30" as="geometry"/>
        </mxCell>

        <mxCell id="e1" style="endArrow=none;" edge="1" parent="2" source="5" target="6"><mxGeometry relative="1" as="geometry"/></mxCell>
        <mxCell id="e2" style="endArrow=block;" edge="1" parent="2" source="6" target="7"><mxGeometry relative="1" as="geometry"/></mxCell>
        <mxCell id="e3" style="endArrow=block;" edge="1" parent="2" source="7" target="8"><mxGeometry relative="1" as="geometry"/></mxCell>
        <mxCell id="e4" style="endArrow=block;" edge="1" parent="2" source="8" target="9"><mxGeometry relative="1" as="geometry"/></mxCell>
        <mxCell id="e5" style="endArrow=block;" edge="1" parent="3" source="9" target="10"><mxGeometry relative="1" as="geometry"/></mxCell>
        <mxCell id="e6" style="endArrow=block;" edge="1" parent="3" source="10" target="11"><mxGeometry relative="1" as="geometry"/></mxCell>
        <mxCell id="e7" style="endArrow=block;" edge="1" parent="4" source="12" target="13"><mxGeometry relative="1" as="geometry"/></mxCell>
        <mxCell id="e8" style="endArrow=block;" edge="1" parent="3" source="11" target="14"><mxGeometry relative="1" as="geometry"/></mxCell>
      </root>
    </mxGraphModel>
  </diagram>
</mxfile>